<svg xmlns="http://www.w3.org/2000/svg" width="22" height="22" viewBox="0 0 22 22">
  <g id="Group_764" data-name="Group 764" transform="translate(-262 -531)">
    <circle id="Ellipse_1" data-name="Ellipse 1" cx="11" cy="11" r="11" transform="translate(262 531)" fill="#035397"/>
    <path id="Icon_awesome-plus" data-name="Icon awesome-plus" d="M10.506,6.695H6.869V3.058a.808.808,0,0,0-.808-.808H5.253a.808.808,0,0,0-.808.808V6.695H.808A.808.808,0,0,0,0,7.5v.808a.808.808,0,0,0,.808.808H4.445v3.637a.808.808,0,0,0,.808.808h.808a.808.808,0,0,0,.808-.808V9.119h3.637a.808.808,0,0,0,.808-.808V7.5A.808.808,0,0,0,10.506,6.695Z" transform="translate(267 533.75)" fill="#fff"/>
  </g>
</svg>
