<svg xmlns="http://www.w3.org/2000/svg" width="20.148" height="20.148" viewBox="0 0 20.148 20.148">
  <path id="Icon_awesome-plus" data-name="Icon awesome-plus" d="M13.229,5.6H8.65V1.018A1.018,1.018,0,0,0,7.632,0H6.614A1.018,1.018,0,0,0,5.6,1.018V5.6H1.018A1.018,1.018,0,0,0,0,6.614V7.632A1.018,1.018,0,0,0,1.018,8.65H5.6v4.579a1.018,1.018,0,0,0,1.018,1.018H7.632A1.018,1.018,0,0,0,8.65,13.229V8.65h4.579a1.018,1.018,0,0,0,1.018-1.018V6.614A1.018,1.018,0,0,0,13.229,5.6Z" transform="translate(10.074) rotate(45)" fill="#d54646"/>
</svg>
