<svg xmlns="http://www.w3.org/2000/svg" width="32" height="32" viewBox="0 0 32 32">
  <g id="Group_771" data-name="Group 771" transform="translate(-1650 -753)">
    <circle id="Ellipse_2" data-name="Ellipse 2" cx="16" cy="16" r="16" transform="translate(1650 753)" fill="#FFFFFF"/>
    <path id="Icon_zocial-call" data-name="Icon zocial-call" d="M3.3,6.071a1.172,1.172,0,0,1,.3-.636L5.985,3.049q.279-.239.418.08L8.331,6.747a.521.521,0,0,1-.1.616l-.875.875a.989.989,0,0,0-.278.616,3.035,3.035,0,0,0,.616,1.531,13.074,13.074,0,0,0,1.213,1.591l.616.636c.186.186.424.414.716.686a12,12,0,0,0,1.441,1.074,3.225,3.225,0,0,0,1.581.666.866.866,0,0,0,.636-.258l1.035-1.034a.437.437,0,0,1,.6-.08l3.48,2.048a.291.291,0,0,1,.159.209.254.254,0,0,1-.08.229L16.7,18.538a1.168,1.168,0,0,1-.636.3,4.81,4.81,0,0,1-2.2-.268A9.943,9.943,0,0,1,11.6,17.483q-1.044-.676-1.939-1.371T8.233,14.919l-.517-.5q-.2-.2-.527-.547T6.044,12.5a19.968,19.968,0,0,1-1.412-2A11.657,11.657,0,0,1,3.6,8.288,4.716,4.716,0,0,1,3.3,6.071Z" transform="translate(1654.733 758.053)" fill="#F2A541"/>
  </g>
</svg>
