<svg width="20" height="20" viewBox="0 0 30 30" fill="none" xmlns="http://www.w3.org/2000/svg">
<circle cx="15" cy="15" r="13.0667" stroke="black" stroke-width="1.86667"/>
<path d="M17.27 5.66675C18.5207 5.66675 19.146 6.51795 19.146 7.49328C19.146 8.71128 18.0596 9.83781 16.6456 9.83781C15.4612 9.83781 14.7705 9.13781 14.8032 7.98048C14.8032 7.00701 15.6255 5.66675 17.27 5.66675ZM13.4219 24.3334C12.4344 24.3334 11.7111 23.7249 12.4017 21.0443L13.5348 16.2918C14 15 13.6208 16 14 15C14.3618 14.0459 14.195 14.2694 11.1996 14.2694L10.5 13C17.0544 12.2122 10.5 13 17.0544 12.2122C18.0409 12.2122 18.2052 13.4003 17.7124 15.2269L16.4141 20.2221C16.1845 21.1041 16.2825 21.4083 16.5131 21.4083C16.8089 21.4083 17.7796 21.0425 18.7335 20.2818L19.2935 21.0415C16.9583 23.4187 14.4075 24.3334 13.4219 24.3334Z" fill="black"/>
</svg>
