<svg xmlns="http://www.w3.org/2000/svg" width="34" height="34" viewBox="0 0 34 34">
  <g id="Group_770" data-name="Group 770" transform="translate(-1028 -753)">
    <circle id="Ellipse_10" data-name="Ellipse 10" cx="17" cy="17" r="17" transform="translate(1028 753)" fill="#ffffff"/>
    <path id="Icon_awesome-instagram" data-name="Icon awesome-instagram" d="M8.155,6.212a4.183,4.183,0,1,0,4.183,4.183A4.176,4.176,0,0,0,8.155,6.212Zm0,6.9a2.719,2.719,0,1,1,2.719-2.719A2.724,2.724,0,0,1,8.155,13.114Zm5.329-7.073a.976.976,0,1,1-.976-.976A.973.973,0,0,1,13.484,6.041Zm2.77.99a4.828,4.828,0,0,0-1.318-3.418A4.86,4.86,0,0,0,11.519,2.3c-1.347-.076-5.384-.076-6.731,0A4.853,4.853,0,0,0,1.37,3.609,4.844,4.844,0,0,0,.052,7.027c-.076,1.347-.076,5.384,0,6.731A4.828,4.828,0,0,0,1.37,17.176a4.866,4.866,0,0,0,3.418,1.318c1.347.076,5.384.076,6.731,0a4.828,4.828,0,0,0,3.418-1.318,4.86,4.86,0,0,0,1.318-3.418c.076-1.347.076-5.38,0-6.727ZM14.515,15.2a2.753,2.753,0,0,1-1.551,1.551c-1.074.426-3.622.328-4.809.328s-3.738.095-4.809-.328A2.753,2.753,0,0,1,1.8,15.2c-.426-1.074-.328-3.622-.328-4.809S1.373,6.656,1.8,5.586A2.753,2.753,0,0,1,3.346,4.035c1.074-.426,3.622-.328,4.809-.328s3.738-.095,4.809.328a2.753,2.753,0,0,1,1.551,1.551c.426,1.074.328,3.622.328,4.809S14.941,14.133,14.515,15.2Z" transform="translate(1037.005 758.762)" fill="#F2A541"/>
  </g>
</svg>
