<svg xmlns="http://www.w3.org/2000/svg" width="34" height="34" viewBox="0 0 34 34">
  <g id="Group_773" data-name="Group 773" transform="translate(-1070 -785.796)">
    <circle id="Ellipse_11" data-name="Ellipse 11" cx="17" cy="17" r="17" transform="translate(1070 785.796)" fill="#fff"/>
    <g id="Group_771" data-name="Group 771" transform="translate(900.389 812.737)">
      <g id="Group_772" data-name="Group 772" transform="translate(178.611 -17.942)">
        <path id="Path_6" data-name="Path 6" d="M405.763,170.733c.206-.239.4-.477.623-.7a3.207,3.207,0,0,1,1.171-.856,4.17,4.17,0,0,1,1.126-.224,4.612,4.612,0,0,1,2.428.424,3.781,3.781,0,0,1,2,2.435,7.428,7.428,0,0,1,.272,2.062q0,3.192,0,6.383c0,.114-.019.152-.145.151q-1.732-.009-3.463,0c-.125,0-.146-.036-.145-.151,0-1.947.007-3.893,0-5.84a3.965,3.965,0,0,0-.305-1.6,1.513,1.513,0,0,0-1.442-.94A2.068,2.068,0,0,0,405.8,173.4a1.084,1.084,0,0,0-.034.39q0,3.226,0,6.451c0,.126-.024.167-.16.166-1.145-.006-2.291,0-3.436,0-.1,0-.138-.019-.138-.132q0-5.473,0-10.947c0-.108.03-.137.136-.136q1.732.005,3.463,0c.112,0,.134.039.133.141C405.761,169.8,405.763,170.267,405.763,170.733Z" transform="translate(-396.39 -164.411)" fill="#f2a541"/>
        <path id="Path_7" data-name="Path 7" d="M187.052,183.855q0-2.73,0-5.459c0-.124.031-.159.157-.158q1.732.007,3.463,0c.117,0,.153.027.153.15q-.005,5.459,0,10.918c0,.123-.034.148-.151.148q-1.738-.007-3.477,0c-.129,0-.144-.042-.144-.154Q187.054,186.578,187.052,183.855Z" transform="translate(-186.855 -173.455)" fill="#f2a541"/>
        <path id="Path_8" data-name="Path 8" d="M181.861-15.219a1.847,1.847,0,0,1-1.273-.386,1.869,1.869,0,0,1-.67-1.423,1.814,1.814,0,0,1,1.729-1.993,1.921,1.921,0,0,1,1.2.269,2.038,2.038,0,0,1,.734,2.392,1.812,1.812,0,0,1-1.373,1.11A1.64,1.64,0,0,1,181.861-15.219Z" transform="translate(-179.915 19.026)" fill="#f2a541"/>
      </g>
    </g>
  </g>
</svg>
