<svg xmlns="http://www.w3.org/2000/svg" width="34" height="33" viewBox="0 0 34 33">
  <g id="Group_767" data-name="Group 767" transform="translate(-899 -753)">
    <ellipse id="Ellipse_7" data-name="Ellipse 7" cx="17" cy="16.5" rx="17" ry="16.5" transform="translate(899 753)" fill="#ffffff"/>
    <path id="Icon_awesome-twitter" data-name="Icon awesome-twitter" d="M14.74,6.706c.01.146.01.292.01.438a9.515,9.515,0,0,1-9.58,9.58A9.515,9.515,0,0,1,0,15.213a6.966,6.966,0,0,0,.813.042,6.743,6.743,0,0,0,4.18-1.439,3.373,3.373,0,0,1-3.148-2.335,4.246,4.246,0,0,0,.636.052,3.561,3.561,0,0,0,.886-.115,3.368,3.368,0,0,1-2.7-3.3V8.072A3.391,3.391,0,0,0,2.189,8.5,3.372,3.372,0,0,1,1.147,4,9.571,9.571,0,0,0,8.089,7.519a3.8,3.8,0,0,1-.083-.771,3.37,3.37,0,0,1,5.827-2.3,6.629,6.629,0,0,0,2.137-.813,3.358,3.358,0,0,1-1.48,1.856,6.75,6.75,0,0,0,1.939-.521A7.238,7.238,0,0,1,14.74,6.706Z" transform="translate(908 759.619)" fill="#F2A541"/>
  </g>
</svg>
