<svg xmlns="http://www.w3.org/2000/svg" width="34" height="33" viewBox="0 0 34 33">
  <g id="Group_769" data-name="Group 769" transform="translate(-943 -753)">
    <ellipse id="Ellipse_8" data-name="Ellipse 8" cx="17" cy="16.5" rx="17" ry="16.5" transform="translate(943 753)" fill="#ffffff"/>
    <path id="Icon_awesome-youtube" data-name="Icon awesome-youtube" d="M17.136,6.307a2.064,2.064,0,0,0-1.453-1.462A48.785,48.785,0,0,0,9.265,4.5a48.785,48.785,0,0,0-6.419.346A2.064,2.064,0,0,0,1.393,6.307a21.656,21.656,0,0,0-.343,3.98,21.656,21.656,0,0,0,.343,3.98,2.034,2.034,0,0,0,1.453,1.439,48.785,48.785,0,0,0,6.419.346,48.785,48.785,0,0,0,6.419-.346,2.034,2.034,0,0,0,1.453-1.439,21.656,21.656,0,0,0,.343-3.98,21.656,21.656,0,0,0-.343-3.98ZM7.584,12.73V7.845l4.294,2.443L7.584,12.73Z" transform="translate(950.95 759.5)" fill="#F2A541"/>
  </g>
</svg>
